HIERARCHY
ROOT Hips
{
	OFFSET -0.001795 -0.223333 0.028219
	CHANNELS 6 Xposition Yposition Zposition Zrotation Yrotation Xrotation
	JOINT LeftUpLeg
	{
		OFFSET 0.069520 -0.091406 -0.006815
		CHANNELS 3 Zrotation Yrotation Xrotation
		JOINT LeftLeg
		{
			OFFSET 0.034277 -0.375199 -0.004496
			CHANNELS 3 Zrotation Yrotation Xrotation
			JOINT LeftFoot
			{
				OFFSET -0.013596 -0.397961 -0.043693
				CHANNELS 3 Zrotation Yrotation Xrotation
				JOINT LeftToe
				{
					OFFSET 0.026358 -0.055791 0.119288
					CHANNELS 3 Zrotation Yrotation Xrotation
					End Site
					{
						OFFSET 0.000000 0.000000 0.000000
					}
				}
			}
		}
	}
	JOINT RightUpLeg
	{
		OFFSET -0.067670 -0.090522 -0.004320
		CHANNELS 3 Zrotation Yrotation Xrotation
		JOINT RightLeg
		{
			OFFSET -0.038290 -0.382569 -0.008850
			CHANNELS 3 Zrotation Yrotation Xrotation
			JOINT RightFoot
			{
				OFFSET 0.015774 -0.398415 -0.042312
				CHANNELS 3 Zrotation Yrotation Xrotation
				JOINT RightToe
				{
					OFFSET -0.025372 -0.048144 0.123348
					CHANNELS 3 Zrotation Yrotation Xrotation
					End Site
					{
						OFFSET 0.000000 0.000000 0.000000
					}
				}
			}
		}
	}
	JOINT Spine
	{
		OFFSET -0.002533 0.108963 -0.026696
		CHANNELS 3 Zrotation Yrotation Xrotation
		JOINT Spine1
		{
			OFFSET 0.005487 0.135180 0.001092
			CHANNELS 3 Zrotation Yrotation Xrotation
			JOINT Spine2
			{
				OFFSET 0.001457 0.052922 0.025425
				CHANNELS 3 Zrotation Yrotation Xrotation
				JOINT Neck
				{
					OFFSET -0.002778 0.213870 -0.042857
					CHANNELS 3 Zrotation Yrotation Xrotation
					JOINT Head
					{
						OFFSET 0.005152 0.064970 0.051349
						CHANNELS 3 Zrotation Yrotation Xrotation
						End Site
						{
							OFFSET 0.000000 0.000000 0.000000
						}
					}
				}
				JOINT LeftShoulder
				{
					OFFSET 0.078845 0.121749 -0.034090
					CHANNELS 3 Zrotation Yrotation Xrotation
					JOINT LeftArm
					{
						OFFSET 0.090977 0.030469 -0.008868
						CHANNELS 3 Zrotation Yrotation Xrotation
						JOINT LeftForeArm
						{
							OFFSET 0.259612 -0.012772 -0.027456
							CHANNELS 3 Zrotation Yrotation Xrotation
							JOINT LeftHand
							{
								OFFSET 0.249234 0.008986 -0.001171
								CHANNELS 3 Zrotation Yrotation Xrotation
								End Site
								{
									OFFSET 0.000000 0.000000 0.000000
								}
							}
						}
					}
				}
				JOINT RightShoulder
				{
					OFFSET -0.081759 0.118833 -0.038615
					CHANNELS 3 Zrotation Yrotation Xrotation
					JOINT RightArm
					{
						OFFSET -0.096012 0.032551 -0.009143
						CHANNELS 3 Zrotation Yrotation Xrotation
						JOINT RightForeArm
						{
							OFFSET -0.253742 -0.013329 -0.021401
							CHANNELS 3 Zrotation Yrotation Xrotation
							JOINT RightHand
							{
								OFFSET -0.255298 0.007772 -0.005559
								CHANNELS 3 Zrotation Yrotation Xrotation
								End Site
								{
									OFFSET 0.000000 0.000000 0.000000
								}
							}
						}
					}
				}
			}
		}
	}
}
MOTION
Frames: 17
Frame Time: 0.050000
0.175092 0.143858 0.190735 -15.330062 -2.028273 -80.841787 7.527954 -6.106698 -62.680866 -4.763674 -9.141093 124.661634 6.683431 12.265930 -18.509425 0.000000 0.000000 0.000000 -1.568042 2.858842 -42.692409 -34.580723 50.332145 104.586076 35.919471 50.959890 26.701814 0.000000 0.000000 0.000000 -19.287881 -11.611592 -36.633654 2.370002 -9.932002 65.393004 2.555734 31.258329 -15.462804 -4.301864 -9.995475 40.160277 0.000000 0.000000 0.000000 -3.367051 8.597838 -3.813380 -34.150292 11.001873 -6.681053 -174.360453 -41.012571 165.846241 0.000000 0.000000 0.000000 43.995206 5.052304 14.655816 43.020275 39.415452 5.496235 -103.147325 72.864207 -68.705013 0.000000 0.000000 0.000000
0.174188 0.147653 0.192561 -14.901532 -4.415621 -79.401712 7.272563 -4.435633 -58.426580 -3.537281 -11.102284 121.392512 7.405025 12.424411 -28.493764 0.000000 0.000000 0.000000 0.866552 4.694485 -42.647122 -30.038036 48.554903 109.016432 27.347009 46.307531 17.983607 0.000000 0.000000 0.000000 -19.149204 -10.570500 -36.540085 4.838810 -10.665990 57.853044 2.254847 29.496883 -10.745931 -1.311180 -14.286088 40.221455 0.000000 0.000000 0.000000 -3.612889 6.128421 -3.227064 -35.864899 12.755654 -7.609714 -168.902278 -39.879807 150.622771 0.000000 0.000000 0.000000 46.869975 4.354684 14.923099 41.433129 37.250408 3.627878 -114.077874 74.413446 -81.068744 0.000000 0.000000 0.000000
0.174137 0.149886 0.193554 -15.706679 -7.039454 -79.139356 5.746412 -4.224661 -55.097043 -1.311648 -13.964599 117.993420 7.986224 12.731889 -34.058397 0.000000 0.000000 0.000000 2.302037 5.629480 -40.881481 -26.559753 44.495459 109.536846 24.653575 44.064219 15.008504 0.000000 0.000000 0.000000 -19.349832 -9.929965 -35.351937 7.183515 -11.757786 52.588587 3.443774 26.860256 -6.802197 0.960954 -15.522552 38.591583 0.000000 0.000000 0.000000 -4.127972 4.898552 -3.157049 -39.124215 14.692180 -9.036601 -165.675444 -39.321170 143.078172 0.000000 0.000000 0.000000 44.985330 6.401676 14.636488 42.587624 32.921775 2.906003 -113.460399 75.176369 -82.420965 0.000000 0.000000 0.000000
0.174238 0.153355 0.193756 -15.960859 -8.806790 -78.558515 5.308911 -3.460515 -51.269944 0.157322 -15.086492 113.646976 8.424567 12.694531 -37.973813 0.000000 0.000000 0.000000 3.719898 6.507739 -40.309999 -24.119977 41.079923 109.153249 18.927750 37.031162 10.359812 0.000000 0.000000 0.000000 -18.639682 -9.047945 -35.644164 8.131896 -11.716416 49.923808 3.710187 25.014243 -4.720102 4.990862 -18.748049 34.517364 0.000000 0.000000 0.000000 -4.451243 2.310725 -2.387473 -42.858143 14.452263 -9.983935 -163.373864 -42.753733 140.443848 0.000000 0.000000 0.000000 43.801992 5.933618 12.949130 43.690640 29.366430 2.106542 -101.016428 77.473942 -73.149318 0.000000 0.000000 0.000000
0.174430 0.157067 0.193272 -15.857115 -10.447625 -78.318767 4.695602 -3.148892 -49.620265 1.869415 -17.118248 113.493037 8.293429 10.634325 -38.246290 0.000000 0.000000 0.000000 4.605491 7.290139 -40.632548 -21.195486 38.025345 110.004484 17.887961 31.783308 12.515691 0.000000 0.000000 0.000000 -17.339877 -7.990517 -36.514285 8.964985 -12.507459 51.331168 2.395997 22.114125 -6.630132 9.418740 -21.844161 30.807169 0.000000 0.000000 0.000000 -6.170908 1.232109 -2.145387 -46.455564 13.990303 -10.613426 -164.729421 -45.672858 147.683240 0.000000 0.000000 0.000000 40.549767 5.420300 9.963330 48.717547 23.499932 1.632006 -111.231202 77.622369 -84.012742 0.000000 0.000000 0.000000
0.174787 0.159496 0.192199 -15.781697 -11.457988 -79.038812 4.227947 -2.908453 -47.163782 3.433013 -19.037757 111.583944 7.967911 7.230753 -38.241415 0.000000 0.000000 0.000000 5.311846 7.569587 -39.145297 -19.610643 34.724950 108.509268 14.392647 25.733196 10.690852 0.000000 0.000000 0.000000 -15.897288 -6.916293 -36.387991 9.422433 -12.431970 49.433241 3.111213 19.956839 -4.512022 14.209439 -22.723356 22.389072 0.000000 0.000000 0.000000 -6.271584 -0.731708 -1.316480 -49.662498 12.307473 -10.886926 -168.273308 -50.812274 159.550931 0.000000 0.000000 0.000000 34.532628 4.243097 7.046189 53.923888 19.130671 1.048818 -118.562667 78.329179 -92.162964 0.000000 0.000000 0.000000
0.175483 0.165122 0.190629 -15.111873 -12.195496 -79.066614 3.731169 -2.759941 -45.776470 4.654492 -20.174949 111.538249 7.580468 4.912828 -36.834146 0.000000 0.000000 0.000000 4.930887 7.361595 -38.058603 -17.822052 32.168333 106.868747 11.822067 21.871436 8.601106 0.000000 0.000000 0.000000 -14.030049 -5.649670 -37.689949 9.822885 -12.414231 48.490058 3.642324 16.040222 -2.934087 16.444492 -22.467823 18.667028 0.000000 0.000000 0.000000 -8.216861 0.234604 -1.760004 -50.586886 12.469943 -11.138628 -172.834612 -54.158575 172.344051 0.000000 0.000000 0.000000 29.938128 3.999630 4.556444 56.054289 13.854759 -0.531578 -129.096624 79.624411 -106.616178 0.000000 0.000000 0.000000
0.176382 0.167861 0.189109 -14.290613 -13.116140 -79.804168 3.848908 -2.183895 -43.356695 7.280419 -22.431011 107.905003 6.989355 0.611015 -36.062257 0.000000 0.000000 0.000000 5.320322 7.534287 -36.898897 -16.800910 30.735075 105.207900 10.621641 19.751589 7.775988 0.000000 0.000000 0.000000 -11.777843 -4.069736 -37.865042 10.136068 -12.067188 46.625315 3.893354 13.147576 -0.188777 18.295822 -22.422597 15.146534 0.000000 0.000000 0.000000 -8.169930 -0.222494 -1.283329 -51.611425 12.650219 -11.651278 -177.041084 -57.514334 -177.518180 0.000000 0.000000 0.000000 23.574398 3.483429 2.837863 61.172080 12.108098 -0.772944 -127.856627 78.986918 -105.477716 0.000000 0.000000 0.000000
0.177428 0.170615 0.188029 -13.320114 -13.337750 -80.376968 3.712512 -1.936422 -41.267065 9.049537 -23.568842 105.421353 6.605565 -1.260554 -35.068444 0.000000 0.000000 0.000000 5.312671 7.424918 -35.947536 -16.303439 29.432139 102.569551 9.555418 18.344648 6.490080 0.000000 0.000000 0.000000 -9.026089 -2.281482 -37.919309 9.570793 -10.587607 42.196519 5.442476 8.995788 5.143728 19.985993 -21.781280 10.495585 0.000000 0.000000 0.000000 -9.812544 0.790639 -1.516412 -49.689434 14.067443 -11.969134 -177.503056 -58.667326 -174.564377 0.000000 0.000000 0.000000 19.796368 2.648040 1.227639 60.744680 10.529700 -1.978173 -126.400100 80.190212 -106.813007 0.000000 0.000000 0.000000
0.178725 0.169020 0.187447 -12.302952 -13.478856 -80.825201 3.336707 -1.950978 -40.692950 9.743314 -23.381171 104.475163 6.194907 -3.025166 -34.034504 0.000000 0.000000 0.000000 4.881200 7.165734 -35.290554 -16.652358 28.673784 98.181922 9.918335 17.847942 7.841595 0.000000 0.000000 0.000000 -6.294375 -0.499290 -38.652080 8.895636 -9.780726 41.691425 4.837363 6.378447 7.023407 20.169600 -20.470311 7.176518 0.000000 0.000000 0.000000 -8.381857 1.172992 -1.309915 -50.822814 16.378450 -13.282613 -174.039944 -58.787109 -179.846105 0.000000 0.000000 0.000000 16.302997 2.357009 0.657430 63.602989 10.019268 -2.332443 -114.817280 81.048448 -96.263436 0.000000 0.000000 0.000000
0.179933 0.168299 0.187297 -11.064933 -12.991268 -80.525028 2.794616 -2.153879 -40.691472 10.929499 -23.393533 101.578106 5.142454 -6.561681 -31.764695 0.000000 0.000000 0.000000 4.136285 7.049724 -36.394073 -17.411096 28.661802 95.077454 11.010981 16.954649 11.674885 0.000000 0.000000 0.000000 -4.248107 0.846723 -39.070394 8.016463 -8.281636 37.283593 5.066348 3.820557 12.570937 20.901986 -20.350037 4.377502 0.000000 0.000000 0.000000 -8.183648 1.951574 -1.440075 -50.703982 18.401536 -14.376793 -169.639708 -57.045306 172.438871 0.000000 0.000000 0.000000 12.081428 1.239709 -0.015181 66.575048 11.618337 -2.078377 -99.925998 81.114200 -81.253102 0.000000 0.000000 0.000000
0.180914 0.167899 0.187329 -10.271838 -12.727603 -80.735183 2.333684 -2.386312 -41.168531 10.566776 -23.028212 102.985751 4.129627 -8.744925 -29.350864 0.000000 0.000000 0.000000 3.287862 6.783967 -37.035597 -17.474622 28.202482 92.987117 11.692073 15.611645 15.155866 0.000000 0.000000 0.000000 -3.130766 1.516372 -38.536619 7.440897 -7.666905 36.618422 4.996390 2.663477 13.153210 20.655641 -20.146866 4.647181 0.000000 0.000000 0.000000 -9.111835 2.531225 -1.635893 -50.153156 20.631158 -14.993121 -164.950523 -56.177596 163.551029 0.000000 0.000000 0.000000 8.775199 0.898443 -0.155522 69.188086 12.024160 -1.805061 -91.425574 80.155030 -72.301985 0.000000 0.000000 0.000000
0.181415 0.168823 0.187421 -9.602587 -12.096889 -80.520969 2.384718 -2.453595 -41.953865 9.620674 -21.848496 103.847098 3.886718 -8.668947 -28.353402 0.000000 0.000000 0.000000 2.277184 6.320861 -37.394034 -17.903383 27.960225 90.570339 12.332800 15.813987 16.459778 0.000000 0.000000 0.000000 -3.337364 1.316927 -38.185697 7.455802 -7.455810 35.050590 4.844779 2.435960 15.036542 20.826486 -19.760324 2.884624 0.000000 0.000000 0.000000 -10.715956 3.042546 -1.926462 -49.886411 23.309435 -15.999595 -159.049312 -51.644475 149.416178 0.000000 0.000000 0.000000 8.070063 1.142131 -0.005193 70.475770 13.854038 -0.817331 -78.008541 79.135424 -58.493859 0.000000 0.000000 0.000000
0.181127 0.171374 0.187692 -9.218952 -11.750501 -80.351810 2.653015 -2.360610 -42.290365 8.617720 -21.091198 105.918120 4.220486 -9.053034 -29.904694 0.000000 0.000000 0.000000 2.076337 6.171996 -37.342086 -17.940589 27.159019 88.415262 12.803629 15.745349 17.669469 0.000000 0.000000 0.000000 -3.746774 0.981847 -37.348189 6.913072 -6.781052 34.004164 5.682284 2.857019 15.926347 21.561571 -21.754225 5.719506 0.000000 0.000000 0.000000 -15.255223 2.878150 -2.155831 -47.495977 24.797881 -15.744942 -152.717685 -50.025394 134.864330 0.000000 0.000000 0.000000 9.160283 0.677515 -0.214011 71.261457 13.754509 -0.865761 -70.963834 79.506377 -52.091703 0.000000 0.000000 0.000000
0.180548 0.175879 0.188278 -9.950064 -11.672202 -80.483801 2.906367 -2.406206 -43.058237 6.433891 -19.755973 109.870873 4.425256 -6.557869 -28.940815 0.000000 0.000000 0.000000 0.960768 5.485614 -36.833192 -16.585422 24.811122 86.965851 13.027142 15.000748 19.214078 0.000000 0.000000 0.000000 -4.885348 0.175800 -36.064553 7.086634 -7.001878 33.768882 6.143614 4.278735 15.797647 19.772907 -21.156098 8.277715 0.000000 0.000000 0.000000 -16.417451 2.269267 -2.211391 -49.489260 26.374228 -17.059063 -141.527687 -48.165869 112.004610 0.000000 0.000000 0.000000 11.717966 1.168623 0.134831 71.756509 14.213023 -0.282025 -59.773908 75.624856 -38.680512 0.000000 0.000000 0.000000
0.179679 0.177301 0.189195 -11.041380 -11.704322 -80.283419 2.458449 -2.931046 -44.463167 5.011437 -18.980844 113.293156 5.014220 -4.167855 -29.619339 0.000000 0.000000 0.000000 -0.208450 4.763723 -36.230318 -15.872829 23.215676 85.463389 13.406057 15.260263 19.667242 0.000000 0.000000 0.000000 -6.048335 -0.620722 -34.880279 5.882509 -5.832914 32.211807 8.621867 4.692907 17.419925 19.663810 -22.117385 10.165880 0.000000 0.000000 0.000000 -19.402338 0.513095 -1.492740 -50.277007 25.450784 -17.204950 -131.207636 -50.935182 99.592455 0.000000 0.000000 0.000000 13.277067 2.044280 0.655899 71.530481 15.078723 0.102442 -41.441946 68.655237 -20.654996 0.000000 0.000000 0.000000
0.179102 0.179510 0.189932 -11.769925 -12.076743 -80.109506 2.967237 -2.743119 -45.020518 4.458934 -18.590712 113.683043 4.294409 -4.947578 -27.224434 0.000000 0.000000 0.000000 -1.100189 4.293783 -35.834040 -13.817195 20.501104 84.015002 12.436118 13.585870 19.573548 0.000000 0.000000 0.000000 -6.549570 -0.926885 -33.894342 5.788751 -5.490094 29.402426 8.807492 5.906816 20.818806 18.362034 -21.264319 10.275080 0.000000 0.000000 0.000000 -19.269867 -1.791664 -0.536153 -53.281105 21.226590 -17.115983 -116.560256 -57.866224 89.297998 0.000000 0.000000 0.000000 15.395657 3.589508 1.896401 71.013133 18.101437 1.654039 -30.836241 59.581558 -10.441071 0.000000 0.000000 0.000000
